<?xml version="1.0" encoding="UTF-8"?>
<svg id="Layer_1" xmlns="http://www.w3.org/2000/svg" version="1.1" viewBox="0 0 190 190">
  <!-- Generator: Adobe Illustrator 29.0.1, SVG Export Plug-In . SVG Version: 2.1.0 Build 192)  -->
  <defs>
    <style>
      .st0 {
        fill: #231f20;
      }

      .st1 {
        fill: #72c8f1;
      }

      .st2 {
        fill: #fff;
      }

      .st3 {
        opacity: .6;
      }

      .st4 {
        fill: #fee01b;
      }
    </style>
  </defs>
  <g class="st3">
    <ellipse class="st0" cx="107.9" cy="175.9" rx="59.9" ry="2.7"/>
  </g>
  <g>
    <circle class="st1" cx="107.9" cy="89.8" r="75.1"/>
    <path class="st0" d="M35.4,89.8c0-15.1,4.7-29.8,13.4-42.1s20.5-21.1,34.2-26.1,30.2-5.8,44.9-1.7,26.8,12.4,36.2,23.7,15.2,25.7,16.3,40.3-2.4,30.4-10.3,43.5c-7.6,12.5-18.9,22.5-32.3,28.6s-29.5,7.9-44.3,4.9c-14.5-3-27.8-10.3-38-21s-17-24.4-19.3-39-.8-7.4-.8-11.1-5-3.2-5,0c0,16,5,31.8,14.3,44.9s22,22.7,36.8,28.1c15.2,5.6,32.2,6.1,47.7,1.7,15-4.3,28.6-13.1,38.5-25.1s16.4-27.6,17.6-43.6c1.3-16-2.6-32.4-11-46.1s-20.1-24-34.2-30.4c-14.9-6.8-31.7-8.6-47.8-5.4-15.3,3.1-29.6,11-40.4,22.3s-18.2,26-20.6,41.6-.9,8-1,12.1,5,3.2,5,0Z"/>
  </g>
  <g>
    <circle class="st2" cx="110.8" cy="72.4" r="13.4"/>
    <path class="st0" d="M99.9,72.4c0-4.5,2.9-8.8,7.2-10.3s9.2-.2,12.2,3.4,3.2,8.6.8,12.5-7,6-11.4,5.1-8.8-5.5-8.8-10.7-5-3.2-5,0c0,6.7,4.3,12.6,10.6,15s13.3.3,17.5-4.7,5-12.6,1.5-18.5-10.2-8.6-16.7-7.4-12.7,8.2-12.8,15.6,5,3.2,5,0Z"/>
  </g>
  <g>
    <path class="st1" d="M8.8,77.4c2.7-8.2,64.4-17,76.5,1.8,12.1,18.8,2.8,39.5-14.3,45.4-17.1,5.9-36,1.5-50.7-12.2s-14.2-26.9-11.5-35.1Z"/>
    <path class="st0" d="M11.2,78c-.4,1.1.1,0,0,0,0,.2-.5.5-.1.2s.2-.2.3-.3.2-.2.3-.3c-.5.5-.3.2,0,0s.7-.4,1-.6.7-.4,1.1-.6.3-.2.5-.2.2,0,.3-.2-.5.2,0,0c1-.4,2-.8,3.1-1.1,2.5-.8,5.1-1.4,7.6-1.9s2.9-.6,4.4-.8,1.5-.2,2.2-.3,1-.1,2.1-.3c6.8-.8,13.6-1.2,20.4-.9s12,.9,18.1,3,1.3.5,2,.7.3.1.5.2c0,0-.4-.2,0,0s.6.3.9.4c1.2.6,2.3,1.2,3.4,1.9s.5.3.7.5c-.5-.4.2.2.4.3.4.4.9.8,1.3,1.2s.4.4.5.6.2.2.3.3c.2.3-.4-.5,0,0,.6.8,1.1,1.6,1.6,2.5,4.3,7.6,5.4,16.6,2.2,24.8-7,17.4-29.1,20.5-45,15.3s-18.8-9.4-24.7-17.6-7.2-14.6-6.4-22.7,0,.3,0-.2,0-.4,0-.6c0-.3.1-.6.2-1,.2-.7.4-1.5.6-2.2,1-3.1-3.8-4.4-4.8-1.3-2.6,7.9-1,16.8,2.4,24.2s13.7,18,23.4,22.9c17.4,8.8,42.7,8.7,55.2-8.4,5.6-7.6,7.2-17.6,4.9-26.7s-3.2-9.1-6.2-12.7-3.9-3.6-6.2-4.9c-5.8-3.1-12.5-4.4-19-5.1s-14.5-.7-21.7,0-13.2,1.5-19.6,3.2-4.9,1.5-7.3,2.5-3.3,1.6-4.5,2.8-1.1,1.4-1.4,2.2c-.5,1.3.5,2.7,1.7,3.1s2.6-.5,3.1-1.7Z"/>
  </g>
  <g>
    <path class="st4" d="M131.9,74.7c0,7.8,6.9,14,16.9,14s27-12.2,27-13.6-22.2-14-29.5-14-14.4,5.8-14.4,13.6Z"/>
    <path class="st0" d="M129.4,74.7c.1,10.6,10.5,17.1,20.4,16.4s8.7-2,12.7-4,7.4-4,10.8-6.5,5.7-3.6,4.9-6.3-1.3-1.9-2.2-2.5-2.1-1.4-3.2-2.1c-6.5-4-13.6-7.7-20.9-10.1s-3.4-1-5.2-1.1c-2.7-.2-5.5.6-8,1.8-5.5,2.6-9.3,8.2-9.4,14.3s5,3.2,5,0,2.6-7.8,6.3-9.7,3.7-1.4,5.6-1.4.5,0,.8,0c.4,0-.1,0-.2,0,.1,0,.3,0,.4,0,.7.1,1.4.3,2,.5,6.4,1.8,12.4,5,18.4,8.4s2.5,1.5,3.7,2.2.9.6,1.4.9.3.2.5.3c.5.4-.4-.4.1.1s.6.8.1,0-.3-1.5,0-2.2c-.2.4.3-.3.1-.1-.8.5-1.4,1.4-2.2,1.9s.5-.4,0,0-.2.2-.4.3c-.3.2-.6.5-.9.7-.7.5-1.4,1-2.2,1.5-1.6,1-3.2,2-4.8,2.9-3.4,1.9-6.9,3.5-10.7,4.5s-.9.2-1.3.3-.4,0-.7.1c-.2,0-.2,0,0,0-.2,0-.3,0-.5,0-1.1,0-2.2,0-3.3,0-2.2-.2-4.5-.9-6.4-2-3.6-2-5.8-5.5-5.9-9.4s-5-3.2-5,0Z"/>
  </g>
</svg>